<?xml version="1.0" encoding="utf-8"?>
<!-- Generator: Adobe Illustrator 16.0.4, SVG Export Plug-In . SVG Version: 6.00 Build 0)  -->
<!DOCTYPE svg PUBLIC "-//W3C//DTD SVG 1.1//EN" "http://www.w3.org/Graphics/SVG/1.1/DTD/svg11.dtd">
<svg version="1.1" id="Layer_1" xmlns="http://www.w3.org/2000/svg" xmlns:xlink="http://www.w3.org/1999/xlink" x="0px" y="0px"
	 width="612px" height="175.992px" viewBox="0 0 612 175.992" enable-background="new 0 0 612 175.992" xml:space="preserve">
<g>
	<path fill="#3C75B3" d="M120.904,66.445c-4.098,0-8.08,0.413-11.916,1.157V15.528H95.971v56.155v11.68
		c0.562-0.016,1.125-0.035,1.693-0.035c1.37,0,2.724,0.059,4.065,0.153c0.134,0.01,0.265,0.025,0.398,0.036l0.361-0.343
		c5.53-2.274,11.78-3.575,18.415-3.575c22.346,0,40.526,14.55,40.526,32.432c0,14.378-9.353,25.993-23.106,30.386
		c-4.422,6.544-10.963,11.656-18.895,14.658c1.521,0.176,3.098,0.324,4.665,0.373l1.7,0.016c27.814,0,48.789-19.532,48.789-45.433
		C174.584,86.896,150.502,66.445,120.904,66.445z"/>
	<rect x="183.005" y="68.869" fill="#3C75B3" width="13.02" height="89.237"/>
	<path fill="#3C75B3" d="M275.187,78.021l-53.588,68.817H277.1v11.245h-72.728v-9.147l53.398-69.199h-50.719V68.869h68.135V78.021z"
		/>
	<path fill="#3C75B3" d="M354.227,159.499c-2.071,0.385-4.075,0.579-6.014,0.579c-6.985,0-11.965-1.966-14.94-5.893
		c-2.977-3.926-4.462-8.858-4.462-14.786V72.541h-19.401v-3.672h19.209V42.784h4.267v26.085h26.19v3.672h-26.19v66.858
		c0,6.059,1.486,10.409,4.462,13.046c2.975,2.642,6.918,3.959,11.834,3.959c3.621,0,6.92-0.575,9.895-1.737l0.584,3.287
		C358.106,158.595,356.292,159.111,354.227,159.499z"/>
	<path fill="#3C75B3" d="M358.06,112.348c0,5.413,0.805,10.761,2.425,16.039c1.616,5.283,4.073,10.018,7.372,14.201
		c3.299,4.19,7.47,7.572,12.514,10.146c5.045,2.58,10.992,3.867,17.848,3.867c6.986,0,13.195-1.384,18.625-4.155
		c5.434-2.767,10.152-6.792,14.164-12.076l3.104,2.703c-4.398,5.67-9.539,9.985-15.422,12.947
		c-5.889,2.962-12.709,4.444-20.471,4.444c-6.595,0-12.609-1.191-18.041-3.573c-5.434-2.383-10.121-5.701-14.066-9.95
		c-3.947-4.251-6.984-9.341-9.119-15.269c-2.133-5.924-3.2-12.365-3.2-19.324c0-6.695,1.101-12.88,3.304-18.549
		c2.203-5.667,5.217-10.562,9.043-14.688c3.826-4.122,8.331-7.31,13.518-9.566c5.184-2.251,10.758-3.381,16.721-3.381
		c7,0,13.092,1.227,18.279,3.672c5.184,2.449,9.494,5.671,12.932,9.662c3.435,3.995,5.996,8.536,7.683,13.623
		c1.685,5.092,2.526,10.274,2.526,15.557v3.67H358.06z M433.528,108.678c-0.131-5.797-1.134-11.079-3.008-15.847
		c-1.875-4.764-4.432-8.856-7.662-12.27c-3.235-3.413-7.114-6.054-11.641-7.923c-4.529-1.867-9.572-2.803-15.133-2.803
		c-6.727,0-12.482,1.386-17.266,4.155c-4.788,2.771-8.702,6.184-11.738,10.241c-3.041,4.058-5.272,8.31-6.693,12.753
		c-1.424,4.445-2.134,8.343-2.134,11.692H433.528z"/>
	<path fill="#3C75B3" d="M471.098,113.866l-32.714,44.217h-5.45l35.438-47.127L437.41,68.869h5.454l28.429,39.179l28.234-39.179
		h5.647l-31.154,42.087l36.023,47.127h-5.647L471.098,113.866z"/>
	<path fill="#3C75B3" d="M557.067,159.499c-2.07,0.385-4.075,0.579-6.013,0.579c-6.985,0-11.967-1.966-14.941-5.893
		c-2.976-3.926-4.461-8.858-4.461-14.786V72.541h-19.401v-3.672h19.207V42.784h4.27v26.085h26.19v3.672h-26.19v66.858
		c0,6.059,1.484,10.409,4.46,13.046c2.974,2.642,6.918,3.959,11.836,3.959c3.62,0,6.919-0.575,9.895-1.737l0.582,3.287
		C560.948,158.595,559.135,159.111,557.067,159.499z"/>
	<g>
		<path fill="#EE8122" d="M97.664,91.023c-21.594,0-39.164,13.795-39.164,30.751c0,6.088,2.338,12.017,6.764,17.157l0.121,0.142
			l0.117,0.147c0.549,0.705,1.257,1.559,1.559,1.882c3.868,5.859,1.318,8.397-4.852,15.478c14.485,2.539,24.969-5.58,24.969-5.58
			c2.743,0.072,5.493,0.431,7.917,0.746h0.01l0.1,0.012c1.939,0.26,4.134,0.547,6.005,0.606l1.38,0.017
			c19.531-0.021,34.252-13.174,34.252-30.606C136.841,104.818,119.267,91.023,97.664,91.023z"/>
		<circle fill-rule="evenodd" clip-rule="evenodd" fill="#FFFFFF" cx="78.885" cy="121.362" r="3.926"/>
		<path fill-rule="evenodd" clip-rule="evenodd" fill="#FFFFFF" d="M127.568,121.367c0,5.333-4.333,9.67-9.679,9.67
			c-5.341,0-9.679-4.337-9.679-9.67c0-5.342,4.338-9.686,9.679-9.686C123.235,111.682,127.568,116.025,127.568,121.367z"/>
		<path fill-rule="evenodd" clip-rule="evenodd" fill="#FFFFFF" d="M104.026,121.367c0,3.842-3.12,6.962-6.971,6.962
			c-3.845,0-6.968-3.12-6.968-6.962c0-3.849,3.123-6.977,6.968-6.977C100.906,114.391,104.026,117.519,104.026,121.367z"/>
	</g>
</g>
</svg>
